<svg xmlns="http://www.w3.org/2000/svg" xmlns:xlink="http://www.w3.org/1999/xlink" viewBox="0 0 119.07 32"><defs><style>.cls-1{fill-rule:evenodd;fill:url(#Gradiente_sem_nome_22);}</style><linearGradient id="Gradiente_sem_nome_22" x1="8.56" y1="13.6" x2="118.16" y2="13.6" gradientUnits="userSpaceOnUse"><stop offset="0" stop-color="#f9d024"/><stop offset="1" stop-color="#fb9637"/></linearGradient></defs><g id="Camada_2" data-name="Camada 2"><g id="Camada_1-2" data-name="Camada 1"><path d="M118.16,8.67c-1.57-1.72-5-1.42-6.94-.08a4.89,4.89,0,0,0-4.77-.86h-6.23L99.88,8l.06-.23h-.17c3.28-3-1.52-6.76-4.5-4.29l.13-.09L92.52,5.28C86.82.94,79.83,4.65,75.09,8.49a4.35,4.35,0,0,0-4.31-.76H64.85L62.51,9.3c-2-2.6-6.56-2.24-9-.34l.31-.22-2.58,1.72C50.83,8,48.1,6.92,45.82,7.73H39.65l-.16.12,0-.12H33.3l-1,.67.17-.67H26.24l-1.18.79L26.8,6.66A9.92,9.92,0,0,0,22.66,4l1.08-4L16.83,2.5h0c-.79.57-3.26,2.12-4,2.66l.29-.22c-.26.2-7.8,5.15-7.77,5.28a5.94,5.94,0,0,0-1.6,2.38C3,14.6,3.17,17.15,5,18.54l-.52.35L0,23.67a12.81,12.81,0,0,0,4.45,2.8l-1.1,4.05L10.27,28a21.52,21.52,0,0,1,3.24-1.94c.5-.26,2.59-1.71,3.1-2,.3,2.59,3.18,3.55,5.44,2.95.37-.27,6.06-.06,6.49-.12l.2-.13L27.36,32l6.89-2.49,3.55-2.38c1.78,0,4.05-2.07,5.5-2.94,2,4.09,7.55,3.32,10.9,1.48l-.32,1.21H60.1l7.19-4.82,1.1-4.22,2.38-1.58a4.52,4.52,0,0,0,1.48,2.28c0-.28-4.83,5-5,5.13a12.45,12.45,0,0,0,11.37,3.21c1.61-.26,3.41-1.61,4.74-2.5l-.66,2.5H89l.35-.23-.06.23h6.22l.87-.59-.15.59h6.29l.87-.58-.16.58h6.17l7.2-4.82C117,18.78,120.76,11.55,118.16,8.67ZM12.72,5.25h0l.11-.09ZM94,6.74h0Z"/><path class="cls-1" d="M27,8.68h4.28l-1.87,7.06a5.77,5.77,0,0,0-.13.76c-.07.85.29,1.28,1.07,1.28a1.51,1.51,0,0,0,1.29-.62,4.29,4.29,0,0,0,.55-1.37L34,8.68h4.26L35,21.11H30.75l.22-.83a4.82,4.82,0,0,1-3,1.12q-3.59,0-3.27-3.63a11.73,11.73,0,0,1,.36-1.88Zm-3.72,7a5.69,5.69,0,0,1-2.4,4.41A7.83,7.83,0,0,1,17,21.35l-.31,1.15-4.74,1.7L12.81,21a10.38,10.38,0,0,1-4.25-2.24l3.16-3.4a7.76,7.76,0,0,0,5,2.06c1.06,0,1.62-.33,1.67-1,0-.48-.23-.88-.81-1.21a12,12,0,0,0-1.49-.57A9.9,9.9,0,0,1,12.8,13a3.61,3.61,0,0,1-1.33-3.29A5.24,5.24,0,0,1,14,5.52a7.75,7.75,0,0,1,3.36-1.15l.31-1.15,4.73-1.71L21.5,4.63a8.94,8.94,0,0,1,.88.27,8.3,8.3,0,0,1,3.09,1.8l-3.16,3.38a6.57,6.57,0,0,0-4.5-1.85c-1,0-1.5.3-1.55.9,0,.45.24.83.82,1.14a13,13,0,0,0,1.43.55,11.89,11.89,0,0,1,3.34,1.61A3.5,3.5,0,0,1,23.25,15.66Zm27.18-2.94a14.39,14.39,0,0,1-1.54,5.52c-1.11,2.1-2.58,3.16-4.41,3.16a3.93,3.93,0,0,1-2.86-1.11l-1,3.68-4.72,1.71,4.46-17h4.28l-.24.88a4.93,4.93,0,0,1,2.85-1.14C49.63,8.42,50.68,9.86,50.43,12.72Zm-4.35.7c.09-1-.21-1.49-.88-1.49a2.45,2.45,0,0,0-1.54.59L42.4,17.23a2,2,0,0,0,1.43.66c.68,0,1.23-.61,1.67-1.83A10.12,10.12,0,0,0,46.08,13.42Zm16.45,0a9.39,9.39,0,0,1-.61,2.7H54.74a1.64,1.64,0,0,0,.36,1.48,2,2,0,0,0,1.48.53,7.11,7.11,0,0,0,3.07-.76l.92,2.84A10.71,10.71,0,0,1,55.8,21.4,4.81,4.81,0,0,1,52,20a5,5,0,0,1-1.08-4A9.12,9.12,0,0,1,53,10.75a6.33,6.33,0,0,1,5-2.33Q63,8.42,62.53,13.42Zm-3.65.05c.14-1.27-.34-1.9-1.45-1.9-.88,0-1.56.63-2,1.9ZM74.33,9.09l-2.12,4.28a2.33,2.33,0,0,0-1.93-1q-1.43,0-2,2l-1.77,6.77H62.31L65.58,8.68h4.29l-.22.74a4.45,4.45,0,0,1,2.64-1A3,3,0,0,1,74.33,9.09Zm16.21,6.57a5.69,5.69,0,0,1-2.4,4.41A8.43,8.43,0,0,1,83.2,21.4a10.8,10.8,0,0,1-7.35-2.62L79,15.38a7.76,7.76,0,0,0,5,2.06c1.06,0,1.62-.33,1.67-1a1.24,1.24,0,0,0-.81-1.21,11.39,11.39,0,0,0-1.49-.57A10.19,10.19,0,0,1,80.09,13a3.66,3.66,0,0,1-1.33-3.29,5.28,5.28,0,0,1,2.48-4.22,8.76,8.76,0,0,1,4.84-1.24,10.89,10.89,0,0,1,3.59.62,8.3,8.3,0,0,1,3.09,1.8L89.6,10.08a6.57,6.57,0,0,0-4.5-1.85c-1,0-1.5.3-1.55.9,0,.45.24.83.83,1.14a10.24,10.24,0,0,0,1.42.55,11.89,11.89,0,0,1,3.34,1.61A3.53,3.53,0,0,1,90.54,15.66Zm4.34-9.79a2.24,2.24,0,0,1,1-1.66,3,3,0,0,1,1.83-.57,2.65,2.65,0,0,1,1.59.45,1.49,1.49,0,0,1,.63,1.45A2.18,2.18,0,0,1,99,7.16a3.06,3.06,0,0,1-1.86.6,2.65,2.65,0,0,1-1.59-.45A1.49,1.49,0,0,1,94.88,5.87Zm.55,15.24H91.17L94.45,8.68h4.26Zm16.19,0,1.87-7a5.08,5.08,0,0,0,.18-.83c.07-.81-.29-1.21-1.09-1.21s-1.42.66-1.77,2l-1.87,7.1h-4.33l1.86-7a4.59,4.59,0,0,0,.14-.78q.12-1.26-1-1.26c-.82,0-1.41.66-1.76,2l-1.87,7.1H97.67L101,8.68h4.26l-.22.83a5.46,5.46,0,0,1,3.15-1.09,3.34,3.34,0,0,1,2.91,1.42,6.5,6.5,0,0,1,3.77-1.42c2.42,0,3.52,1.19,3.32,3.55a10.74,10.74,0,0,1-.35,1.85l-2,7.29Z"/></g></g></svg>
